<svg width="49" height="48" viewBox="0 0 49 48" fill="none" xmlns="http://www.w3.org/2000/svg">
<path d="M24.3605 0.959991C27.7161 2.96 31.0716 4.96203 34.4271 6.96204C34.9407 7.26819 35.4563 7.57232 36.0323 7.9127C34.7131 8.69619 33.4341 9.42328 32.1934 10.2128C31.7503 10.4948 31.4643 10.3216 31.1098 10.1101C29.1279 8.92983 27.1199 7.78984 25.1622 6.5713C24.5076 6.16445 24.0322 6.13424 23.3615 6.55922C21.4099 7.78783 19.3917 8.9117 17.426 10.1161C16.9567 10.4042 16.6284 10.4062 16.1651 10.1101C14.9828 9.35682 13.7583 8.66598 12.5095 7.92479C16.427 5.58036 20.2941 3.27018 24.1591 0.959991C24.2276 0.959991 24.2941 0.959991 24.3605 0.959991Z" fill="#F0B902"/>
<path d="M23.9575 46.2432C22.9223 45.3409 21.6534 44.8072 20.4993 44.0922C20.0763 43.8303 19.9011 43.5725 19.9132 43.071C19.9474 41.6692 19.9253 40.2653 19.9253 38.6762C21.2465 39.4416 22.463 40.1062 23.6332 40.8414C24.1025 41.1374 24.4308 41.1113 24.886 40.8293C26.0421 40.1103 27.2345 39.4516 28.588 38.6682C28.588 40.3741 28.5839 41.927 28.59 43.4778C28.592 43.8847 28.2294 43.9129 28.0018 44.072C26.8901 44.8474 25.5849 45.3208 24.5617 46.2412C24.3603 46.2432 24.1589 46.2432 23.9575 46.2432Z" fill="#F0B902"/>
<path d="M19.9334 30.5936C19.9334 29.6892 19.8166 28.7648 19.9596 27.8846C20.1812 26.515 19.5367 25.8624 18.4208 25.2743C16.6182 24.3277 14.9042 23.2159 13.1298 22.2149C12.6262 21.9309 12.445 21.6026 12.4651 21.0306C12.5094 19.7919 12.4973 18.5512 12.4691 17.3125C12.4591 16.8533 12.6061 16.5854 13.013 16.3578C14.0945 15.7576 15.16 15.1312 16.2073 14.4746C16.6706 14.1846 17.0331 14.2269 17.4843 14.5008C19.4239 15.6851 21.4017 16.807 23.3252 18.0134C24.014 18.4465 24.5357 18.4082 25.2064 17.9913C27.1379 16.7949 29.1218 15.6851 31.0574 14.4988C31.5649 14.1866 31.9476 14.2168 32.4229 14.519C33.2669 15.0567 34.1067 15.6287 35.0131 16.0376C35.8973 16.4364 36.1511 17.0326 36.0544 17.9268C36 18.4243 35.9678 18.946 36.0584 19.4314C36.3988 21.234 35.6979 22.3075 34.0262 23.0689C32.3625 23.8262 30.8479 24.9057 29.2447 25.802C28.7391 26.084 28.5699 26.4183 28.578 26.9903C28.6082 29.4032 28.574 31.8161 28.6042 34.227C28.6122 34.8051 28.437 35.1394 27.9214 35.4133C26.8902 35.9632 25.8811 36.5594 24.8962 37.1878C24.4289 37.4859 24.0684 37.4496 23.6213 37.1696C22.435 36.4244 20.8559 35.9692 20.1328 34.9179C19.4279 33.8907 19.9858 32.2592 19.9294 30.8937C19.9294 30.795 19.9334 30.6943 19.9334 30.5936Z" fill="#F0B901"/>
<path d="M31.7741 41.9048C31.7741 40.2593 31.8003 38.8192 31.76 37.3811C31.7459 36.8373 32.04 36.6258 32.4347 36.3942C34.4529 35.216 36.4468 33.9894 38.4871 32.8494C39.0853 32.515 39.2404 32.1324 39.2324 31.4959C39.2042 29.1172 39.2444 26.7386 39.2243 24.3619C39.2203 23.8302 39.3693 23.516 39.8547 23.2562C40.8839 22.7023 41.8789 22.084 42.8759 21.4737C43.3089 21.2078 43.5164 21.2038 43.5164 21.806C43.5063 26.0276 43.5103 30.2471 43.5123 34.4687C43.5123 34.7829 43.4801 35.0427 43.1599 35.2301C39.4177 37.4134 35.6835 39.6107 31.7741 41.9048Z" fill="#F0B901"/>
<path d="M5.11136 21.1655C6.45075 21.9591 7.66928 22.7063 8.914 23.4052C9.33898 23.6449 9.28661 23.9893 9.28661 24.3478C9.29467 26.6922 9.34301 29.0367 9.28661 31.3811C9.26849 32.1706 9.54442 32.5775 10.205 32.9481C12.1849 34.0619 14.1165 35.2562 16.0883 36.3841C16.5858 36.6681 16.7932 36.9884 16.7751 37.5725C16.7328 38.9421 16.761 40.3157 16.761 41.8907C15.4256 41.1113 14.2071 40.4023 12.9906 39.6893C10.5716 38.2714 8.15468 36.8454 5.73171 35.4335C5.31277 35.1898 4.99454 34.9682 4.99857 34.3781C5.02677 30.1243 5.0167 25.8705 5.02073 21.6187C5.02274 21.52 5.059 21.4253 5.11136 21.1655Z" fill="#F0B901"/>
<path d="M13.6595 12.2954C12.3181 13.0849 11.1539 13.802 9.95754 14.4646C9.45804 14.7405 9.25663 15.0648 9.27476 15.6489C9.32108 17.0185 9.28886 18.3921 9.28886 19.9289C7.87898 19.1051 6.56578 18.3397 5.25862 17.5683C4.93637 17.379 5.01895 17.0447 5.01895 16.7526C5.0129 15.4817 5.0411 14.2088 5.00283 12.9379C4.98672 12.4243 5.19216 12.1544 5.61512 11.9208C6.52147 11.4213 7.44595 10.9379 8.28382 10.3397C9.05321 9.78985 9.65341 9.83416 10.4168 10.3719C11.3936 11.0587 12.4712 11.6005 13.6595 12.2954Z" fill="#F0B902"/>
<path d="M39.2168 19.9309C39.2168 18.3921 39.1886 16.9983 39.2308 15.6086C39.247 15.0628 39.0597 14.7627 38.5964 14.5008C37.3819 13.8181 36.1956 13.0849 34.8723 12.2954C36.2721 11.4676 37.5672 10.7163 38.8441 9.93687C39.1745 9.73546 39.398 9.86637 39.6639 10.0235C40.7535 10.672 41.8432 11.3246 42.9489 11.947C43.3376 12.1665 43.529 12.4122 43.5169 12.8875C43.4826 14.1927 43.5028 15.4998 43.5068 16.805C43.5088 17.1474 43.5028 17.4515 43.1402 17.657C41.8713 18.376 40.6145 19.1192 39.2168 19.9309Z" fill="#F0B902"/>
<path d="M28.5802 12.2934C27.1945 13.1192 25.9074 13.8825 24.6265 14.6539C24.3747 14.805 24.1612 14.8251 23.8953 14.662C22.6164 13.8825 21.3274 13.1212 19.9417 12.2914C21.3133 11.4837 22.6063 10.7284 23.8933 9.95904C24.1149 9.82611 24.3002 9.77173 24.5399 9.91272C25.8551 10.6962 27.1783 11.4696 28.5802 12.2934Z" fill="#F0B902"/>
<path d="M12.4772 25.4919C13.879 26.3136 15.168 27.0689 16.455 27.8262C16.6383 27.933 16.7511 28.078 16.7511 28.3076C16.7471 29.8363 16.7491 31.365 16.7491 33.077C15.3332 32.2532 14.0764 31.514 12.8075 30.793C12.5255 30.6339 12.4731 30.4103 12.4752 30.1263C12.4792 28.6258 12.4772 27.1293 12.4772 25.4919Z" fill="#F0B902"/>
<path d="M31.768 33.0971C31.768 31.4013 31.7741 29.9088 31.762 28.4143C31.76 28.1042 31.8969 27.9289 32.1487 27.7839C33.4055 27.0488 34.6583 26.3056 36.042 25.4878C36.042 27.1374 36.04 28.654 36.044 30.1726C36.044 30.4184 35.9997 30.6218 35.76 30.7608C34.477 31.504 33.198 32.2572 31.768 33.0971Z" fill="#F0B902"/>
</svg>
