<svg width="24" height="24" viewBox="0 0 24 24" fill="none" xmlns="http://www.w3.org/2000/svg">
<path d="M5.47 9C7.403 9 8.97 7.433 8.97 5.5C8.97 3.567 7.403 2 5.47 2C3.537 2 1.97 3.567 1.97 5.5C1.97 7.433 3.537 9 5.47 9Z" stroke="#67686C" stroke-width="1.25"/>
<path d="M16.97 15H19.97C21.07 15 21.97 15.9 21.97 17V20C21.97 21.1 21.07 22 19.97 22H16.97C15.87 22 14.97 21.1 14.97 20V17C14.97 15.9 15.87 15 16.97 15Z" stroke="#67686C" stroke-width="1.25"/>
<path d="M12 5H14.68C16.53 5 17.39 7.29 16 8.51L8.01001 15.5C6.62001 16.71 7.48001 19 9.32001 19H12" stroke="#67686C" stroke-width="1.25" stroke-linecap="round" stroke-linejoin="round"/>
<path d="M5.48622 5.5H5.49777" stroke="#67686C" stroke-width="2" stroke-linecap="round" stroke-linejoin="round"/>
<path d="M18.4862 18.5H18.4978" stroke="#67686C" stroke-width="2" stroke-linecap="round" stroke-linejoin="round"/>
</svg>
