<svg width="30" height="30" viewBox="0 0 30 30" fill="none" xmlns="http://www.w3.org/2000/svg">
<path d="M0 5C0 2.23858 2.23858 0 5 0H25C27.7614 0 30 2.23858 30 5V25C30 27.7614 27.7614 30 25 30H5C2.23858 30 0 27.7614 0 25V5Z" fill="#393B42"/>
<path d="M7.00063 19.3483C7.04979 19.1316 7.0883 18.9117 7.15029 18.6988C7.31124 18.1473 7.61308 17.6785 8.01762 17.2739C9.24785 16.0438 10.4753 14.8105 11.7092 13.5842C12.7779 12.522 14.2514 12.2633 15.5881 12.9228C15.9 13.0766 16.1815 13.3067 16.4473 13.536C16.73 13.7799 16.7278 14.1908 16.4827 14.4607C16.24 14.7276 15.8351 14.7586 15.5568 14.5093C15.2355 14.2218 14.8855 14.001 14.4534 13.9321C13.8312 13.8329 13.277 13.9825 12.7954 14.3915C12.7519 14.4285 12.71 14.4679 12.6692 14.5083C11.4278 15.7494 10.1841 16.9883 8.94601 18.2331C8.21363 18.9697 8.13128 20.0545 8.73371 20.8674C9.42758 21.8035 10.8047 21.9557 11.6579 21.1602C12.3204 20.5427 12.947 19.886 13.5882 19.2456C13.7874 19.0467 14.0156 18.9531 14.2962 19.0357C14.7402 19.1667 14.9155 19.7018 14.6362 20.0708C14.6143 20.0999 14.5908 20.1281 14.5652 20.1537C13.9317 20.7873 13.3017 21.4246 12.6624 22.0521C12.1251 22.5798 11.4772 22.8883 10.7276 22.9782C10.7035 22.981 10.6807 22.996 10.6572 23.0054C10.4486 23.0054 10.2404 23.0054 10.0319 23.0054C9.98179 22.9941 9.932 22.9807 9.88159 22.9722C8.57872 22.7533 7.68008 22.0302 7.20509 20.7989C7.10395 20.5364 7.06669 20.2493 7 19.9734C7.00063 19.7651 7.00063 19.5569 7.00063 19.3483Z" fill="#E7E7E7"/>
<path d="M15.5177 17.8188C14.6197 17.8022 13.8372 17.4891 13.186 16.859C12.9107 16.5928 12.8982 16.1932 13.149 15.9189C13.391 15.6542 13.7975 15.6261 14.0755 15.8763C14.3965 16.1647 14.7481 16.3836 15.1799 16.4516C15.802 16.5493 16.3584 16.4008 16.8359 15.9871C16.9931 15.8509 17.1359 15.6981 17.2834 15.5509C18.5361 14.2989 19.7895 13.0475 21.0404 11.7939C21.7321 11.1005 21.8674 10.1263 21.3905 9.31769C20.7524 8.2354 19.2701 7.99551 18.3439 8.84857C17.7581 9.38815 17.2101 9.96876 16.6456 10.5312C16.4314 10.7445 16.2219 10.9624 16.0037 11.171C15.7175 11.4447 15.3142 11.4456 15.0506 11.181C14.7875 10.917 14.7863 10.5096 15.0662 10.2281C15.8484 9.44139 16.6168 8.63875 17.4277 7.88246C19.2785 6.15662 22.333 7.09298 22.9066 9.55601C23.1896 10.7717 22.869 11.838 21.9936 12.7227C20.6378 14.0928 19.2704 15.4513 17.9065 16.8129C17.2489 17.4693 16.4527 17.8016 15.5177 17.8188Z" fill="#E7E7E7"/>
</svg>
