<svg width="201" height="46" viewBox="0 0 201 46" fill="none" xmlns="http://www.w3.org/2000/svg">
<path d="M50.1918 33H53.7278L45.5118 14.8H42.1838L33.9938 33H37.4778L39.2718 28.788H48.3718L50.1918 33ZM40.4158 26.136L43.8218 18.18L47.2538 26.136H40.4158ZM56.8224 33H69.7184V30.14H60.2024V14.8H56.8224V33ZM73.1668 33H86.0628V30.14H76.5468V14.8H73.1668V33Z" fill="#FFC916"/>
<path d="M97.9353 33.26C100.925 33.26 103.473 32.194 105.163 30.218L102.979 28.138C101.653 29.594 100.015 30.296 98.1173 30.296C94.3473 30.296 91.6173 27.644 91.6173 23.9C91.6173 20.156 94.3473 17.504 98.1173 17.504C100.015 17.504 101.653 18.206 102.979 19.636L105.163 17.582C103.473 15.606 100.925 14.54 97.9613 14.54C92.3713 14.54 88.2113 18.466 88.2113 23.9C88.2113 29.334 92.3713 33.26 97.9353 33.26ZM116.748 18.96C114.824 18.96 113.186 19.584 112.12 20.728V13.708H108.87V33H112.12V25.98C112.12 23.198 113.68 21.794 115.994 21.794C118.074 21.794 119.296 22.99 119.296 25.46V33H122.546V25.044C122.546 20.858 120.076 18.96 116.748 18.96ZM132.753 18.96C130.517 18.96 128.359 19.532 126.877 20.676L128.151 23.042C129.191 22.184 130.803 21.664 132.363 21.664C134.677 21.664 135.821 22.782 135.821 24.68V24.888H132.233C128.021 24.888 126.461 26.708 126.461 29.022C126.461 31.44 128.463 33.182 131.635 33.182C133.715 33.182 135.223 32.506 136.003 31.31V33H139.071V24.862C139.071 20.858 136.757 18.96 132.753 18.96ZM132.311 30.816C130.647 30.816 129.659 30.062 129.659 28.892C129.659 27.878 130.257 27.046 132.467 27.046H135.821V28.658C135.275 30.088 133.897 30.816 132.311 30.816ZM145.66 16.828C146.882 16.828 147.74 15.944 147.74 14.8C147.74 13.734 146.856 12.928 145.66 12.928C144.464 12.928 143.58 13.786 143.58 14.878C143.58 15.97 144.464 16.828 145.66 16.828ZM144.022 33H147.272V19.116H144.022V33ZM160.195 18.96C158.167 18.96 156.477 19.636 155.411 20.91V19.116H152.317V33H155.567V25.98C155.567 23.198 157.127 21.794 159.441 21.794C161.521 21.794 162.743 22.99 162.743 25.46V33H165.993V25.044C165.993 20.858 163.523 18.96 160.195 18.96ZM175.186 33.182C179.086 33.182 181.478 31.492 181.478 28.892C181.478 23.458 172.898 25.954 172.898 23.146C172.898 22.236 173.834 21.586 175.81 21.586C177.136 21.586 178.462 21.846 179.788 22.626L181.036 20.156C179.788 19.402 177.682 18.96 175.836 18.96C172.092 18.96 169.726 20.676 169.726 23.302C169.726 28.84 178.306 26.344 178.306 28.996C178.306 29.958 177.448 30.53 175.394 30.53C173.652 30.53 171.78 29.958 170.558 29.152L169.31 31.622C170.558 32.506 172.872 33.182 175.186 33.182ZM186.097 33.182C187.267 33.182 188.229 32.272 188.229 31.024C188.229 29.724 187.267 28.866 186.097 28.866C184.927 28.866 183.965 29.724 183.965 31.024C183.965 32.272 184.927 33.182 186.097 33.182Z" fill="white"/>
<g clip-path="url(#clip0_2397_7735)">
<path d="M31.0485 27.8904L16.2221 25.2293L24.185 21.7077L31.0485 27.8904Z" fill="url(#paint0_linear_2397_7735)"/>
<path d="M39.9338 9.9422L16.2221 25.2293L5.04499 17.183L39.9338 9.9422Z" fill="url(#paint1_linear_2397_7735)"/>
<path d="M33.4168 23.5674L16.222 25.2293L39.9337 9.9422L33.4168 23.5674Z" fill="url(#paint2_linear_2397_7735)"/>
<path d="M23.4266 42.8757L16.2221 25.2293L31.0484 27.8903L23.4266 42.8757Z" fill="url(#paint3_linear_2397_7735)"/>
<path d="M39.9337 9.9422L16.222 25.2293L39.6667 10.0002L39.9337 9.9422Z" fill="url(#paint4_linear_2397_7735)"/>
<path opacity="0.36" d="M31.0483 27.8903L16.222 25.2293L26.9435 24.193L31.0483 27.8903Z" fill="url(#paint5_linear_2397_7735)"/>
<path d="M16.2222 25.2293L31.0486 27.8903L30.8423 27.7111L16.2222 25.2293Z" fill="url(#paint6_linear_2397_7735)"/>
</g>
<defs>
<linearGradient id="paint0_linear_2397_7735" x1="16.8907" y1="22.6197" x2="31.4436" y2="26.3483" gradientUnits="userSpaceOnUse">
<stop stop-color="#E9A300"/>
<stop offset="1" stop-color="#FFD215"/>
</linearGradient>
<linearGradient id="paint1_linear_2397_7735" x1="38.4669" y1="6.99997" x2="20.9669" y2="20.5" gradientUnits="userSpaceOnUse">
<stop stop-color="#FFC916"/>
<stop offset="0.0001" stop-color="#FCF627"/>
<stop offset="1" stop-color="#DEAB00"/>
</linearGradient>
<linearGradient id="paint2_linear_2397_7735" x1="24.9857" y1="23.5003" x2="41.6394" y2="13.9467" gradientUnits="userSpaceOnUse">
<stop offset="5.32779e-09" stop-color="#EBAC0B"/>
<stop offset="0.0174" stop-color="#ECAE0C"/>
<stop offset="1" stop-color="#FEFF2A"/>
</linearGradient>
<linearGradient id="paint3_linear_2397_7735" x1="14.4594" y1="32.1091" x2="29.0122" y2="35.8377" gradientUnits="userSpaceOnUse">
<stop stop-color="#E9A300"/>
<stop offset="0.3877" stop-color="#F0C82A"/>
<stop offset="1" stop-color="#FAFF6A"/>
</linearGradient>
<linearGradient id="paint4_linear_2397_7735" x1="28.2103" y1="12.0684" x2="27.7706" y2="31.2854" gradientUnits="userSpaceOnUse">
<stop offset="7.45891e-08" stop-color="white"/>
<stop offset="0.0835" stop-color="#FDF5E1"/>
<stop offset="0.2742" stop-color="#F7DFA1"/>
<stop offset="0.4564" stop-color="#F3CD6B"/>
<stop offset="0.625" stop-color="#EFBF42"/>
<stop offset="0.7769" stop-color="#EDB424"/>
<stop offset="0.907" stop-color="#ECAE11"/>
<stop offset="1" stop-color="#EBAC0B"/>
</linearGradient>
<linearGradient id="paint5_linear_2397_7735" x1="23.6807" y1="24.6634" x2="23.5806" y2="29.0379" gradientUnits="userSpaceOnUse">
<stop stop-color="white"/>
<stop offset="0.1144" stop-color="#F4F4F4"/>
<stop offset="0.3163" stop-color="#D6D6D6"/>
<stop offset="0.582" stop-color="#A6A6A6"/>
<stop offset="0.8981" stop-color="#646464"/>
<stop offset="1" stop-color="#4D4D4D"/>
</linearGradient>
<linearGradient id="paint6_linear_2397_7735" x1="23.6548" y1="25.7506" x2="23.5903" y2="28.5692" gradientUnits="userSpaceOnUse">
<stop stop-color="#FFEA6A"/>
<stop offset="1" stop-color="white"/>
</linearGradient>
<clipPath id="clip0_2397_7735">
<rect width="34.0402" height="37.4792" fill="white" transform="matrix(0.967221 0.253937 -0.242566 0.970135 9.09106 0.513611)"/>
</clipPath>
</defs>
</svg>
