<svg width="206" height="43" viewBox="0 0 206 43" fill="none" xmlns="http://www.w3.org/2000/svg">
<path d="M51.0349 31H54.5709L46.3549 12.8H43.0269L34.8369 31H38.3209L40.1149 26.788H49.2149L51.0349 31ZM41.2589 24.136L44.6649 16.18L48.0969 24.136H41.2589ZM57.6655 31H70.5615V28.14H61.0455V12.8H57.6655V31ZM74.01 31H86.906V28.14H77.39V12.8H74.01V31Z" fill="#FFC916"/>
<path d="M98.7784 31.26C101.768 31.26 104.316 30.194 106.006 28.218L103.822 26.138C102.496 27.594 100.858 28.296 98.9604 28.296C95.1904 28.296 92.4604 25.644 92.4604 21.9C92.4604 18.156 95.1904 15.504 98.9604 15.504C100.858 15.504 102.496 16.206 103.822 17.636L106.006 15.582C104.316 13.606 101.768 12.54 98.8044 12.54C93.2144 12.54 89.0544 16.466 89.0544 21.9C89.0544 27.334 93.2144 31.26 98.7784 31.26ZM117.591 16.96C115.667 16.96 114.029 17.584 112.963 18.728V11.708H109.713V31H112.963V23.98C112.963 21.198 114.523 19.794 116.837 19.794C118.917 19.794 120.139 20.99 120.139 23.46V31H123.389V23.044C123.389 18.858 120.919 16.96 117.591 16.96ZM133.596 16.96C131.36 16.96 129.202 17.532 127.72 18.676L128.994 21.042C130.034 20.184 131.646 19.664 133.206 19.664C135.52 19.664 136.664 20.782 136.664 22.68V22.888H133.076C128.864 22.888 127.304 24.708 127.304 27.022C127.304 29.44 129.306 31.182 132.478 31.182C134.558 31.182 136.066 30.506 136.846 29.31V31H139.914V22.862C139.914 18.858 137.6 16.96 133.596 16.96ZM133.154 28.816C131.49 28.816 130.502 28.062 130.502 26.892C130.502 25.878 131.1 25.046 133.31 25.046H136.664V26.658C136.118 28.088 134.74 28.816 133.154 28.816ZM146.503 14.828C147.725 14.828 148.583 13.944 148.583 12.8C148.583 11.734 147.699 10.928 146.503 10.928C145.307 10.928 144.423 11.786 144.423 12.878C144.423 13.97 145.307 14.828 146.503 14.828ZM144.865 31H148.115V17.116H144.865V31ZM161.038 16.96C159.01 16.96 157.32 17.636 156.254 18.91V17.116H153.16V31H156.41V23.98C156.41 21.198 157.97 19.794 160.284 19.794C162.364 19.794 163.586 20.99 163.586 23.46V31H166.836V23.044C166.836 18.858 164.366 16.96 161.038 16.96ZM176.029 31.182C179.929 31.182 182.321 29.492 182.321 26.892C182.321 21.458 173.741 23.954 173.741 21.146C173.741 20.236 174.677 19.586 176.653 19.586C177.979 19.586 179.305 19.846 180.631 20.626L181.879 18.156C180.631 17.402 178.525 16.96 176.679 16.96C172.935 16.96 170.569 18.676 170.569 21.302C170.569 26.84 179.149 24.344 179.149 26.996C179.149 27.958 178.291 28.53 176.237 28.53C174.495 28.53 172.623 27.958 171.401 27.152L170.153 29.622C171.401 30.506 173.715 31.182 176.029 31.182ZM186.94 31.182C188.11 31.182 189.072 30.272 189.072 29.024C189.072 27.724 188.11 26.866 186.94 26.866C185.77 26.866 184.808 27.724 184.808 29.024C184.808 30.272 185.77 31.182 186.94 31.182Z" fill="#131418"/>
<g clip-path="url(#clip0_2409_7722)">
<path d="M31.0485 25.8904L16.2221 23.2293L24.185 19.7077L31.0485 25.8904Z" fill="url(#paint0_linear_2409_7722)"/>
<path d="M39.9338 7.94223L16.2221 23.2293L5.04499 15.1831L39.9338 7.94223Z" fill="url(#paint1_linear_2409_7722)"/>
<path d="M33.4168 21.5674L16.222 23.2293L39.9337 7.94223L33.4168 21.5674Z" fill="url(#paint2_linear_2409_7722)"/>
<path d="M23.4266 40.8757L16.2221 23.2293L31.0484 25.8904L23.4266 40.8757Z" fill="url(#paint3_linear_2409_7722)"/>
<path d="M39.9337 7.94223L16.222 23.2293L39.6667 8.00022L39.9337 7.94223Z" fill="url(#paint4_linear_2409_7722)"/>
<path opacity="0.36" d="M31.0485 25.8904L16.2221 23.2293L26.9436 22.193L31.0485 25.8904Z" fill="url(#paint5_linear_2409_7722)"/>
<path d="M16.2221 23.2293L31.0484 25.8904L30.8422 25.7111L16.2221 23.2293Z" fill="url(#paint6_linear_2409_7722)"/>
</g>
<defs>
<linearGradient id="paint0_linear_2409_7722" x1="16.8907" y1="20.6197" x2="31.4436" y2="24.3483" gradientUnits="userSpaceOnUse">
<stop stop-color="#E9A300"/>
<stop offset="1" stop-color="#FFD215"/>
</linearGradient>
<linearGradient id="paint1_linear_2409_7722" x1="38.4669" y1="5" x2="20.9669" y2="18.5" gradientUnits="userSpaceOnUse">
<stop stop-color="#FFC916"/>
<stop offset="0.0001" stop-color="#FCF627"/>
<stop offset="1" stop-color="#DEAB00"/>
</linearGradient>
<linearGradient id="paint2_linear_2409_7722" x1="24.9857" y1="21.5003" x2="41.6394" y2="11.9467" gradientUnits="userSpaceOnUse">
<stop offset="5.32779e-09" stop-color="#EBAC0B"/>
<stop offset="0.0174" stop-color="#ECAE0C"/>
<stop offset="1" stop-color="#FEFF2A"/>
</linearGradient>
<linearGradient id="paint3_linear_2409_7722" x1="14.4594" y1="30.1092" x2="29.0122" y2="33.8378" gradientUnits="userSpaceOnUse">
<stop stop-color="#E9A300"/>
<stop offset="0.3877" stop-color="#F0C82A"/>
<stop offset="1" stop-color="#FAFF6A"/>
</linearGradient>
<linearGradient id="paint4_linear_2409_7722" x1="28.2103" y1="10.0685" x2="27.7706" y2="29.2855" gradientUnits="userSpaceOnUse">
<stop offset="7.45891e-08" stop-color="white"/>
<stop offset="0.0835" stop-color="#FDF5E1"/>
<stop offset="0.2742" stop-color="#F7DFA1"/>
<stop offset="0.4564" stop-color="#F3CD6B"/>
<stop offset="0.625" stop-color="#EFBF42"/>
<stop offset="0.7769" stop-color="#EDB424"/>
<stop offset="0.907" stop-color="#ECAE11"/>
<stop offset="1" stop-color="#EBAC0B"/>
</linearGradient>
<linearGradient id="paint5_linear_2409_7722" x1="23.6808" y1="22.6634" x2="23.5807" y2="27.0379" gradientUnits="userSpaceOnUse">
<stop stop-color="white"/>
<stop offset="0.1144" stop-color="#F4F4F4"/>
<stop offset="0.3163" stop-color="#D6D6D6"/>
<stop offset="0.582" stop-color="#A6A6A6"/>
<stop offset="0.8981" stop-color="#646464"/>
<stop offset="1" stop-color="#4D4D4D"/>
</linearGradient>
<linearGradient id="paint6_linear_2409_7722" x1="23.6547" y1="23.7506" x2="23.5902" y2="26.5692" gradientUnits="userSpaceOnUse">
<stop stop-color="#FFEA6A"/>
<stop offset="1" stop-color="white"/>
</linearGradient>
<clipPath id="clip0_2409_7722">
<rect width="32" height="36" fill="white" transform="translate(8.93506) rotate(14.3707)"/>
</clipPath>
</defs>
</svg>
