<svg width="200" height="218" viewBox="0 0 200 218" fill="none" xmlns="http://www.w3.org/2000/svg">
<mask id="mask0_1254_3647" style="mask-type:alpha" maskUnits="userSpaceOnUse" x="0" y="0" width="200" height="218">
<rect x="200" y="218" width="200" height="218" rx="10" transform="rotate(-180 200 218)" fill="#131418"/>
</mask>
<g mask="url(#mask0_1254_3647)">
<path fill-rule="evenodd" clip-rule="evenodd" d="M116.857 -4.14434C118.472 -3.6023 120.141 -3.04054 121.767 -2.52313C129.584 -0.0346542 138.431 3.16835 144.491 9.73573C149.066 14.693 150.278 21.3306 151.451 27.7514C151.771 29.5081 152.102 31.3227 152.498 33.0733C153.464 37.3554 154.656 41.6499 156.14 46.2006C156.595 47.6026 157.027 49.0673 157.444 50.4865C158.34 53.5367 159.268 56.6884 160.552 59.5939C162.483 63.9547 166.258 65.1671 169.331 65.7383C173.202 66.4541 177.305 67.3204 181.16 69.3084C187.182 72.4153 191.547 77.7868 194.898 86.2113C196.61 90.5197 198.144 94.9829 199.616 99.3559L199.616 95.4989C198.495 92.2339 197.322 88.9511 196.048 85.7481C192.628 77.1462 187.943 71.4049 181.726 68.1985C177.719 66.1325 173.516 65.2421 169.555 64.5083C165.379 63.7352 163.026 62.1144 161.686 59.0857C160.433 56.2552 159.517 53.1425 158.633 50.1317C158.214 48.7064 157.779 47.2293 157.317 45.8126C155.845 41.2988 154.665 37.0401 153.707 32.7961C153.317 31.0689 152.989 29.2679 152.67 27.5259C151.466 20.9302 150.219 14.1091 145.4 8.8857C139.133 2.09411 130.109 -1.17787 122.14 -3.71317C120.525 -4.22811 118.86 -4.78741 117.25 -5.32945C117.152 -5.36148 117.053 -5.39475 116.955 -5.42801L113 -5.42801C114.293 -5.00669 115.579 -4.57428 116.857 -4.14434Z" fill="#FFC916" fill-opacity="0.8"/>
<path fill-rule="evenodd" clip-rule="evenodd" d="M158.292 0.153805C162.298 2.0793 164.533 4.26227 165.322 7.02424C166.265 10.3196 165.366 13.8121 164.497 17.1864C164.4 17.5559 164.306 17.9231 164.214 18.2902C161.617 28.6506 162.169 37.0733 165.903 44.0386C169.51 50.7698 175.721 54.935 181.727 58.9621C187.833 63.0554 194.146 67.2874 197.699 74.2139C198.433 75.6423 199.062 77.1284 199.616 78.6442L199.616 77.7658C199.129 76.5057 198.589 75.2694 197.974 74.0694C194.385 67.0706 188.037 62.818 181.9 58.7007C175.924 54.6947 169.746 50.553 166.175 43.8908C162.48 36.9969 161.937 28.6482 164.514 18.3653C164.606 18.0007 164.701 17.6348 164.796 17.2652C165.635 14.0068 166.587 10.3172 165.621 6.93923C164.548 3.18557 161 1.11101 158.426 -0.125836C153.645 -2.41967 148.61 -4.08031 143.577 -5.42803L142.353 -5.42803C147.75 -4.0298 153.17 -2.30265 158.292 0.153805Z" fill="#FFC916" fill-opacity="0.8"/>
<path fill-rule="evenodd" clip-rule="evenodd" d="M175.937 40.8714C179.013 47.3833 184.87 51.5484 190.534 55.5756C193.67 57.8072 196.866 60.0811 199.616 62.77L199.616 62.3428C196.901 59.7263 193.779 57.5035 190.713 55.323C185.081 51.3168 179.258 47.1751 176.217 40.7383C169.922 27.4089 183.583 15.1377 192.622 7.01812L193.719 6.02765C195.764 4.18469 197.789 2.23209 199.616 0.0725327L199.616 -0.414078C197.738 1.84404 195.637 3.88041 193.513 5.79605L192.416 6.78282C183.308 14.9665 169.543 27.3313 175.937 40.8714Z" fill="#FFC916" fill-opacity="0.8"/>
<path fill-rule="evenodd" clip-rule="evenodd" d="M184.804 35.0604C185.109 40.7149 188.712 44.8566 191.818 47.8317C194.161 50.075 196.776 52.1681 199.616 54.0874L199.616 53.708C196.857 51.8305 194.314 49.7917 192.031 47.605C188.968 44.6669 185.412 40.5892 185.114 35.0419C184.843 30.0082 187.194 25.7396 189.213 23.0479C192.132 19.1562 195.925 16.0136 199.616 12.9843L199.616 12.5815C195.848 15.6699 191.958 18.8704 188.967 22.8619C186.915 25.5955 184.529 29.9294 184.804 35.0604Z" fill="#FFC916" fill-opacity="0.8"/>
<path fill-rule="evenodd" clip-rule="evenodd" d="M199.616 44.2542C197.249 42.0232 195.708 39.3881 195.183 36.5892C194.29 31.8327 196.843 27.484 199.616 24.3291L199.616 23.8609C196.708 27.0898 193.938 31.6356 194.878 36.6458C195.431 39.5963 197.081 42.3632 199.616 44.6792L199.616 44.2542Z" fill="#FFC916" fill-opacity="0.8"/>
</g>
</svg>
