<svg width="49" height="48" viewBox="0 0 49 48" fill="none" xmlns="http://www.w3.org/2000/svg">
<path d="M42.8124 24.6459C42.7489 24.6441 42.6855 24.641 42.6221 24.641C40.4866 24.6407 38.3511 24.6408 36.2156 24.6408C36.1474 24.6408 36.0789 24.6408 35.9866 24.6408C35.9866 24.7268 35.9866 24.7997 35.9866 24.8724C35.9866 27.0707 35.985 29.2689 35.9901 31.4671C35.9904 31.6116 35.9476 31.7173 35.8554 31.8224C35.1516 32.6252 34.3467 33.3144 33.484 33.9385C32.8099 34.4262 32.1028 34.8607 31.3661 35.2472C31.3112 35.2761 31.2548 35.3023 31.1829 35.3376C31.1829 25.1585 31.1829 14.9966 31.1829 4.81491C35.0641 6.01476 38.9382 7.21236 42.8124 8.40978C42.8124 13.8216 42.8124 19.2337 42.8124 24.6459ZM35.9992 11.4967C35.9992 14.2876 35.9992 17.0481 35.9992 19.8158C36.6724 19.8158 37.3332 19.8158 38.0053 19.8158C38.0053 17.2472 38.0053 14.6883 38.0053 12.1155C37.3411 11.9106 36.6763 11.7055 35.9992 11.4967Z" fill="#FFFEFE"/>
<path d="M42.813 30.6002C42.8032 30.6387 42.7871 30.6768 42.7846 30.7158C42.7159 31.8032 42.3876 32.8177 41.9139 33.7895C41.3294 34.989 40.5277 36.0332 39.6009 36.9856C38.3296 38.2918 36.881 39.3734 35.3368 40.3314C33.0601 41.7438 30.642 42.8636 28.1311 43.788C27.4553 44.0368 26.7722 44.2656 26.0923 44.5031C26.0715 44.5104 26.0493 44.5132 26.0134 44.5213C26.0134 42.8251 26.0134 41.1387 26.0134 39.439C26.1778 39.3765 26.3436 39.3127 26.5098 39.2504C28.511 38.4997 30.4454 37.6079 32.2829 36.513C33.4298 35.8298 34.526 35.075 35.5225 34.1825C36.1085 33.6575 36.6508 33.0923 37.1029 32.4456C37.4927 31.8881 37.8096 31.2947 37.9421 30.6207C37.9875 30.3903 38.0123 30.1522 38.0143 29.9173C38.0225 29.0175 38.0176 28.1177 38.0176 27.2179C38.0176 27.1507 38.0176 27.0835 38.0176 26.9998C39.631 26.9998 41.2222 26.9998 42.8132 26.9998C42.813 28.2 42.813 29.4002 42.813 30.6002Z" fill="#FFFEFE"/>
<path d="M6.82577 24.6412C6.82577 19.2344 6.82577 13.8486 6.82577 8.44269C10.6081 7.27558 14.3933 6.10761 18.1956 4.93427C18.1956 6.66942 18.1956 8.37998 18.1956 10.1053C16.0114 10.7833 13.8282 11.4612 11.6418 12.1399C11.6418 14.7018 11.6418 17.25 11.6418 19.8241C11.9166 19.8265 12.1854 19.825 12.4543 19.8253C12.7313 19.8257 13.0083 19.8253 13.2853 19.8253C13.5566 19.8253 13.8277 19.8253 14.099 19.8253C14.3703 19.8253 14.6414 19.8253 14.9127 19.8253C15.184 19.8253 15.4551 19.8253 15.7264 19.8253C16.0034 19.8253 16.2804 19.8253 16.5574 19.8253C16.8287 19.8253 17.0998 19.8253 17.3711 19.8253C17.6412 19.8253 17.9111 19.8253 18.1937 19.8253C18.1937 27.2444 18.1937 34.6466 18.1937 42.0639C18.1476 42.0464 18.1152 42.0376 18.0859 42.0227C16.9372 41.4326 15.782 40.8546 14.6771 40.1831C13.2935 39.3422 11.9751 38.4129 10.7794 37.3172C9.72318 36.349 8.78735 35.2806 8.06598 34.0357C7.53258 33.1153 7.14921 32.1382 6.95327 31.0898C6.85435 30.5606 6.81676 30.0265 6.81503 29.4892C6.8126 28.7163 6.81416 27.9431 6.81486 27.1701C6.81486 27.1195 6.82075 27.0689 6.82438 27.0088C8.42389 27.0088 10.0147 27.0088 11.626 27.0088C11.6286 27.0691 11.6333 27.1301 11.6335 27.1909C11.634 27.9294 11.6454 28.6681 11.6305 29.4061C11.6155 30.16 11.8119 30.8535 12.1686 31.5085C12.4713 32.0641 12.8553 32.5606 13.2844 33.0233C13.3059 33.0465 13.3312 33.0661 13.3757 33.1065C13.3757 30.2719 13.3757 27.467 13.3757 24.6412C11.1924 24.6412 9.01464 24.6412 6.82577 24.6412Z" fill="#FFFEFE"/>
<path d="M24.537 44.4557C22.8861 43.8672 21.2845 43.2373 19.7253 42.4943C19.7253 29.8149 19.7253 17.1403 19.7253 4.45284C19.777 4.43361 19.8284 4.41161 19.8818 4.39515C21.4841 3.90003 23.0865 3.40561 24.6888 2.91015C24.7896 2.87897 24.8828 2.86632 24.9909 2.89993C26.5099 3.37183 28.0304 3.83871 29.5506 4.30732C29.5994 4.32239 29.647 4.34179 29.7018 4.36137C29.7018 6.08353 29.7018 7.8005 29.7018 9.54275C29.6349 9.52404 29.5767 9.50915 29.5194 9.49148C28.0436 9.03603 26.5665 8.5844 25.0937 8.11995C24.9015 8.05932 24.7363 8.06555 24.5634 8.15061C24.5296 8.27881 24.5244 19.6306 24.5625 19.8239C26.2687 19.8239 27.9795 19.8239 29.7006 19.8239C29.7006 21.4345 29.7006 23.0242 29.7006 24.6381C29.4567 24.6443 29.2167 24.6403 28.9771 24.641C28.7289 24.6417 28.4808 24.6412 28.2326 24.6412C27.9902 24.6412 27.7478 24.6412 27.5053 24.6412C27.2571 24.6412 27.009 24.6412 26.7607 24.6412C26.5184 24.6412 26.276 24.6412 26.0335 24.6412C25.7852 24.6412 25.5371 24.6412 25.2889 24.6412C25.0471 24.6412 24.805 24.6412 24.5377 24.6412C24.5363 25.5916 24.5372 26.5296 24.537 27.4676C24.5369 28.4138 24.537 29.36 24.537 30.3061C24.537 31.2464 24.537 32.1869 24.537 33.1273C24.537 34.0676 24.537 35.0081 24.537 35.9484C24.537 36.8888 24.537 37.8293 24.537 38.7696C24.537 39.7159 24.537 40.6621 24.537 41.6081C24.537 42.5478 24.537 43.4876 24.537 44.4557Z" fill="#FFFEFE"/>
</svg>
